<mxfile host="app.diagrams.net" modified="2020-12-10T01:27:37.649Z" agent="5.0 (Windows NT 10.0; Win64; x64) AppleWebKit/537.36 (KHTML, like Gecko) Chrome/87.0.4280.88 Safari/537.36" etag="f_9EALvoQWfXhZ1oaalw" version="13.11.0" type="github">
  <diagram id="wxuobhRd6ikoc4GfYRXk" name="Page-1">
    <mxGraphModel dx="868" dy="450" grid="1" gridSize="10" guides="1" tooltips="1" connect="1" arrows="1" fold="1" page="1" pageScale="1" pageWidth="827" pageHeight="1169" math="0" shadow="0">
      <root>
        <mxCell id="0" />
        <mxCell id="1" parent="0" />
        <mxCell id="NG4NRU7fvwRKGi1fwaee-1" value="Actor" style="shape=umlActor;verticalLabelPosition=bottom;verticalAlign=top;html=1;outlineConnect=0;" vertex="1" parent="1">
          <mxGeometry x="210" y="700" width="50" height="80" as="geometry" />
        </mxCell>
        <mxCell id="NG4NRU7fvwRKGi1fwaee-6" value="" style="rounded=1;whiteSpace=wrap;html=1;absoluteArcSize=1;arcSize=14;strokeWidth=2;" vertex="1" parent="1">
          <mxGeometry x="380" y="610" width="230" height="300" as="geometry" />
        </mxCell>
        <mxCell id="NG4NRU7fvwRKGi1fwaee-7" value="" style="strokeWidth=2;html=1;shape=mxgraph.flowchart.start_1;whiteSpace=wrap;" vertex="1" parent="1">
          <mxGeometry x="390" y="720" width="100" height="60" as="geometry" />
        </mxCell>
        <mxCell id="NG4NRU7fvwRKGi1fwaee-8" style="edgeStyle=orthogonalEdgeStyle;rounded=0;orthogonalLoop=1;jettySize=auto;html=1;exitX=0.5;exitY=1;exitDx=0;exitDy=0;" edge="1" parent="1" source="NG4NRU7fvwRKGi1fwaee-6" target="NG4NRU7fvwRKGi1fwaee-6">
          <mxGeometry relative="1" as="geometry" />
        </mxCell>
        <mxCell id="NG4NRU7fvwRKGi1fwaee-10" style="edgeStyle=orthogonalEdgeStyle;rounded=0;orthogonalLoop=1;jettySize=auto;html=1;exitX=0.5;exitY=1;exitDx=0;exitDy=0;" edge="1" parent="1" source="NG4NRU7fvwRKGi1fwaee-6" target="NG4NRU7fvwRKGi1fwaee-6">
          <mxGeometry relative="1" as="geometry" />
        </mxCell>
      </root>
    </mxGraphModel>
  </diagram>
</mxfile>
